<svg xmlns="http://www.w3.org/2000/svg" width="64" height="64" viewBox="0 0 64 64">
  <defs>
    <linearGradient id="bg64" x1="0%" y1="0%" x2="100%" y2="100%">
      <stop offset="0%" stop-color="#ec4899"/>
      <stop offset="25%" stop-color="#a855f7"/>
      <stop offset="50%" stop-color="#3b82f6"/>
      <stop offset="75%" stop-color="#10b981"/>
      <stop offset="100%" stop-color="#f59e0b"/>
    </linearGradient>
    <linearGradient id="heart64" x1="0%" y1="0%" x2="100%" y2="100%">
      <stop offset="0%" stop-color="#ffffff"/>
      <stop offset="50%" stop-color="#fdf2f8"/>
      <stop offset="100%" stop-color="#ffffff"/>
    </linearGradient>
  </defs>
  
  <!-- Background circle with pride gradient -->
  <circle cx="32" cy="32" r="30" fill="url(#bg64)"/>
  
  <!-- Inner circle for contrast -->
  <circle cx="32" cy="32" r="26" fill="rgba(255,255,255,0.15)" stroke="rgba(255,255,255,0.3)" stroke-width="1"/>
  
  <!-- Main heart icon -->
  <path d="M32 48 L24 40 C20 36 20 28 24 24 C26 22 29 22 31 24 L32 25 L33 24 C35 22 38 22 40 24 C44 28 44 36 40 40 Z" 
        fill="url(#heart64)"/>
  
  <!-- Small sparkles -->
  <g fill="rgba(255,255,255,0.9)">
    <path d="M20 16 L21 19 L24 20 L21 21 L20 24 L19 21 L16 20 L19 19 Z"/>
    <path d="M44 14 L45 16 L47 17 L45 18 L44 20 L43 18 L41 17 L43 16 Z"/>
    <path d="M46 28 L47 30 L49 31 L47 32 L46 34 L45 32 L43 31 L45 30 Z"/>
  </g>
</svg>